<svg width="744" height="178" viewBox="0 0 744 178" fill="none" xmlns="http://www.w3.org/2000/svg">
<path d="M16.3823 16.2544H40.0292C44.4769 16.1563 48.3809 17.1615 51.7414 19.2699C53.9653 20.5448 55.6949 22.2854 56.9304 24.4919C58.1164 26.9435 58.7094 29.9591 58.7094 33.5385C58.7094 37.8534 57.2516 41.776 54.3359 45.3063C51.2719 48.9348 46.7007 50.798 40.6222 50.8961H16.3823V16.2544ZM0 108.117H16.3823V66.2679H41.2893C52.4086 66.0717 60.8592 62.5414 66.6412 55.6768C72.2749 49.1554 75.0918 41.9231 75.0918 33.9798C75.0918 28.0958 73.9798 22.9964 71.756 18.6815C69.631 14.2195 66.8635 10.7872 63.4536 8.38461C59.4013 5.19748 55.3984 3.08907 51.4449 2.05938C47.4914 1.27485 43.3896 0.882591 39.1396 0.882591H0V108.117Z" fill="#292929"/>
<path d="M89.3214 54.5C89.3214 66.7582 89.692 75.0448 90.4333 79.3596C90.8287 81.6642 91.3229 83.5765 91.9159 85.0965C92.5583 86.5675 93.2749 88.112 94.0656 89.7301C96.6848 94.6824 100.885 99.0463 106.667 102.822C112.351 106.744 119.442 108.804 127.942 109C136.541 108.804 143.707 106.744 149.439 102.822C155.122 99.0463 159.224 94.6824 161.745 89.7301C163.573 87.1314 164.833 83.6745 165.525 79.3596C166.168 75.0448 166.489 66.7582 166.489 54.5C166.489 42.0457 166.168 33.7101 165.525 29.4933C164.833 25.2764 163.573 21.8686 161.745 19.2699C159.224 14.3176 155.122 9.90463 149.439 6.03104C143.707 2.10841 136.541 0.0980657 127.942 0C119.442 0.0980657 112.351 2.10841 106.667 6.03104C100.885 9.90463 96.6848 14.3176 94.0656 19.2699C92.4348 21.8686 91.224 25.2764 90.4333 29.4933C89.692 33.7101 89.3214 42.0457 89.3214 54.5ZM105.778 54.5C105.778 43.9579 106.173 36.7746 106.964 32.9501C107.656 29.3216 109.064 26.3552 111.189 24.0506C112.919 21.8441 115.192 20.0054 118.009 18.5344C120.776 17.1125 124.087 16.3525 127.942 16.2544C131.846 16.3525 135.231 17.1125 138.098 18.5344C140.816 20.0054 142.99 21.8441 144.621 24.0506C146.746 26.3552 148.204 29.3216 148.995 32.9501C149.736 36.7746 150.106 43.9579 150.106 54.5C150.106 65.0421 149.736 72.1763 148.995 75.9028C148.204 79.6293 146.746 82.6449 144.621 84.9494C142.99 87.1559 140.816 88.9456 138.098 90.3185C135.231 91.9366 131.846 92.7456 127.942 92.7456C124.087 92.7456 120.776 91.9366 118.009 90.3185C115.192 88.9456 112.919 87.1559 111.189 84.9494C109.064 82.6449 107.656 79.6293 106.964 75.9028C106.173 72.1763 105.778 65.0421 105.778 54.5Z" fill="#292929"/>
<path d="M205.107 15.3718H230.755C235.993 15.3718 239.996 16.475 242.764 18.6815C246.272 21.1822 248.076 25.2274 248.175 30.8171C248.175 35.4753 246.668 39.3979 243.653 42.585C240.589 46.0173 235.993 47.7825 229.865 47.8806H205.107V15.3718ZM188.724 108.117H205.107V62.2962H226.011L248.323 108.117H267.819L242.764 60.531C256.502 55.2845 263.47 45.3799 263.668 30.8171C263.371 20.9125 259.788 13.2879 252.919 7.94332C247.236 3.23617 239.897 0.882591 230.903 0.882591H188.724V108.117Z" fill="#292929"/>
<path d="M299.913 108.117H316.37V15.3718H345.947V0.882591H270.336V15.3718H299.913V108.117Z" fill="#292929"/>
<path d="M360.547 108.117H376.93V62.2962H421.851V47.8806H376.93V16.2544H429.56V0.882591H360.547V108.117Z" fill="#292929"/>
<path d="M441.418 54.5C441.418 66.7582 441.789 75.0448 442.53 79.3596C442.925 81.6642 443.419 83.5765 444.012 85.0965C444.655 86.5675 445.371 88.112 446.162 89.7301C448.781 94.6824 452.982 99.0463 458.764 102.822C464.447 106.744 471.539 108.804 480.039 109C488.638 108.804 495.803 106.744 501.536 102.822C507.219 99.0463 511.321 94.6824 513.841 89.7301C515.67 87.1314 516.93 83.6745 517.622 79.3596C518.264 75.0448 518.585 66.7582 518.585 54.5C518.585 42.0457 518.264 33.7101 517.622 29.4933C516.93 25.2764 515.67 21.8686 513.841 19.2699C511.321 14.3176 507.219 9.90463 501.536 6.03104C495.803 2.10841 488.638 0.0980657 480.039 0C471.539 0.0980657 464.447 2.10841 458.764 6.03104C452.982 9.90463 448.781 14.3176 446.162 19.2699C444.531 21.8686 443.321 25.2764 442.53 29.4933C441.789 33.7101 441.418 42.0457 441.418 54.5ZM457.874 54.5C457.874 43.9579 458.27 36.7746 459.06 32.9501C459.752 29.3216 461.161 26.3552 463.286 24.0506C465.015 21.8441 467.289 20.0054 470.106 18.5344C472.873 17.1125 476.184 16.3525 480.039 16.2544C483.943 16.3525 487.328 17.1125 490.194 18.5344C492.912 20.0054 495.087 21.8441 496.718 24.0506C498.843 26.3552 500.3 29.3216 501.091 32.9501C501.832 36.7746 502.203 43.9579 502.203 54.5C502.203 65.0421 501.832 72.1763 501.091 75.9028C500.3 79.6293 498.843 82.6449 496.718 84.9494C495.087 87.1559 492.912 88.9456 490.194 90.3185C487.328 91.9366 483.943 92.7456 480.039 92.7456C476.184 92.7456 472.873 91.9366 470.106 90.3185C467.289 88.9456 465.015 87.1559 463.286 84.9494C461.161 82.6449 459.752 79.6293 459.06 75.9028C458.27 72.1763 457.874 65.0421 457.874 54.5Z" fill="#292929"/>
<path d="M540.821 108.117H609.834V92.7456H557.203V0.882591H540.821V108.117Z" fill="#292929"/>
<path d="M628.363 108.117H644.745V0.882591H628.363V108.117Z" fill="#292929"/>
<path d="M666.833 54.5C666.833 66.7582 667.203 75.0448 667.945 79.3596C668.34 81.6642 668.834 83.5765 669.427 85.0965C670.07 86.5675 670.786 88.112 671.577 89.7301C674.196 94.6824 678.397 99.0463 684.179 102.822C689.862 106.744 696.953 108.804 705.453 109C714.052 108.804 721.218 106.744 726.951 102.822C732.634 99.0463 736.735 94.6824 739.256 89.7301C741.084 87.1314 742.344 83.6745 743.036 79.3596C743.679 75.0448 744 66.7582 744 54.5C744 42.0457 743.679 33.7101 743.036 29.4933C742.344 25.2764 741.084 21.8686 739.256 19.2699C736.735 14.3176 732.634 9.90463 726.951 6.03104C721.218 2.10841 714.052 0.0980657 705.453 0C696.953 0.0980657 689.862 2.10841 684.179 6.03104C678.397 9.90463 674.196 14.3176 671.577 19.2699C669.946 21.8686 668.735 25.2764 667.945 29.4933C667.203 33.7101 666.833 42.0457 666.833 54.5ZM683.289 54.5C683.289 43.9579 683.684 36.7746 684.475 32.9501C685.167 29.3216 686.575 26.3552 688.7 24.0506C690.43 21.8441 692.703 20.0054 695.52 18.5344C698.288 17.1125 701.599 16.3525 705.453 16.2544C709.357 16.3525 712.743 17.1125 715.609 18.5344C718.327 20.0054 720.501 21.8441 722.132 24.0506C724.257 26.3552 725.715 29.3216 726.506 32.9501C727.247 36.7746 727.618 43.9579 727.618 54.5C727.618 65.0421 727.247 72.1763 726.506 75.9028C725.715 79.6293 724.257 82.6449 722.132 84.9494C720.501 87.1559 718.327 88.9456 715.609 90.3185C712.743 91.9366 709.357 92.7456 705.453 92.7456C701.599 92.7456 698.288 91.9366 695.52 90.3185C692.703 88.9456 690.43 87.1559 688.7 84.9494C686.575 82.6449 685.167 79.6293 684.475 75.9028C683.684 72.1763 683.289 65.0421 683.289 54.5Z" fill="#292929"/>
<path d="M221.54 169.109L218 173.142C221.793 176.381 226.326 178 231.6 178C239.754 177.903 243.921 174.47 244.1 167.7C244.1 165.19 243.311 162.988 241.732 161.093C240.137 159.166 237.671 157.976 234.334 157.522C232.641 157.312 231.307 157.126 230.33 156.964C228.572 156.64 227.294 156.057 226.497 155.215C225.699 154.389 225.3 153.466 225.3 152.445C225.333 150.745 225.927 149.466 227.083 148.607C228.189 147.781 229.573 147.368 231.233 147.368C234.44 147.433 237.378 148.34 240.047 150.089L243.05 145.668C239.779 143.32 235.929 142.097 231.502 142C227.823 142.032 224.983 142.988 222.981 144.866C220.914 146.761 219.88 149.255 219.88 152.348C219.88 154.923 220.702 157.109 222.346 158.907C223.941 160.656 226.269 161.781 229.329 162.283C231.038 162.526 232.609 162.745 234.041 162.939C237.166 163.474 238.713 165.061 238.68 167.7C238.615 170.923 236.271 172.567 231.648 172.632C227.742 172.599 224.372 171.425 221.54 169.109Z" fill="#292929"/>
<path d="M275.298 177.708H280.693V142.291H275.298V157.474H261.21V142.291H255.814V177.708H261.21V162.235H275.298V177.708Z" fill="#292929"/>
<path d="M293.018 160C293.018 164.049 293.14 166.785 293.384 168.211C293.514 168.972 293.677 169.603 293.872 170.105C294.084 170.591 294.32 171.101 294.58 171.636C295.443 173.271 296.826 174.713 298.731 175.96C300.603 177.255 302.938 177.935 305.738 178C308.57 177.935 310.93 177.255 312.819 175.96C314.69 174.713 316.041 173.271 316.872 171.636C317.474 170.777 317.889 169.636 318.117 168.211C318.328 166.785 318.434 164.049 318.434 160C318.434 155.887 318.328 153.134 318.117 151.741C317.889 150.348 317.474 149.223 316.872 148.364C316.041 146.729 314.69 145.271 312.819 143.992C310.93 142.696 308.57 142.032 305.738 142C302.938 142.032 300.603 142.696 298.731 143.992C296.826 145.271 295.443 146.729 294.58 148.364C294.043 149.223 293.644 150.348 293.384 151.741C293.14 153.134 293.018 155.887 293.018 160ZM298.438 160C298.438 156.518 298.568 154.146 298.828 152.883C299.056 151.684 299.52 150.704 300.22 149.943C300.79 149.215 301.539 148.607 302.466 148.121C303.378 147.652 304.468 147.401 305.738 147.368C307.024 147.401 308.139 147.652 309.083 148.121C309.978 148.607 310.694 149.215 311.232 149.943C311.932 150.704 312.412 151.684 312.672 152.883C312.916 154.146 313.038 156.518 313.038 160C313.038 163.482 312.916 165.838 312.672 167.069C312.412 168.3 311.932 169.296 311.232 170.057C310.694 170.785 309.978 171.377 309.083 171.83C308.139 172.364 307.024 172.632 305.738 172.632C304.468 172.632 303.378 172.364 302.466 171.83C301.539 171.377 300.79 170.785 300.22 170.057C299.52 169.296 299.056 168.3 298.828 167.069C298.568 165.838 298.438 163.482 298.438 160Z" fill="#292929"/>
<path d="M347.55 160C347.55 164.049 347.672 166.785 347.917 168.211C348.047 168.972 348.21 169.603 348.405 170.105C348.616 170.591 348.853 171.101 349.113 171.636C349.976 173.271 351.359 174.713 353.264 175.96C355.135 177.255 357.471 177.935 360.271 178C363.103 177.935 365.463 177.255 367.351 175.96C369.223 174.713 370.574 173.271 371.404 171.636C372.007 170.777 372.422 169.636 372.65 168.211C372.861 166.785 372.967 164.049 372.967 160C372.967 155.887 372.861 153.134 372.65 151.741C372.422 150.348 372.007 149.223 371.404 148.364C370.574 146.729 369.223 145.271 367.351 143.992C365.463 142.696 363.103 142.032 360.271 142C357.471 142.032 355.135 142.696 353.264 143.992C351.359 145.271 349.976 146.729 349.113 148.364C348.576 149.223 348.177 150.348 347.917 151.741C347.672 153.134 347.55 155.887 347.55 160ZM352.971 160C352.971 156.518 353.101 154.146 353.361 152.883C353.589 151.684 354.053 150.704 354.753 149.943C355.323 149.215 356.071 148.607 356.999 148.121C357.911 147.652 359.001 147.401 360.271 147.368C361.557 147.401 362.672 147.652 363.616 148.121C364.511 148.607 365.227 149.215 365.764 149.943C366.464 150.704 366.944 151.684 367.205 152.883C367.449 154.146 367.571 156.518 367.571 160C367.571 163.482 367.449 165.838 367.205 167.069C366.944 168.3 366.464 169.296 365.764 170.057C365.227 170.785 364.511 171.377 363.616 171.83C362.672 172.364 361.557 172.632 360.271 172.632C359.001 172.632 357.911 172.364 356.999 171.83C356.071 171.377 355.323 170.785 354.753 170.057C354.053 169.296 353.589 168.3 353.361 167.069C353.101 165.838 352.971 163.482 352.971 160Z" fill="#292929"/>
<path d="M385.291 177.708H390.687V166.923L396.937 160.389L406.63 177.708H413.027L400.429 156.259L411.831 142.291H405.434L390.785 160.534H390.687V142.291H385.291V177.708Z" fill="#292929"/>
<path d="M422.128 165.709C422.161 169.433 423.398 172.389 425.84 174.575C428.232 176.826 431.211 177.968 434.776 178C438.405 177.968 441.409 176.826 443.785 174.575C446.145 172.389 447.358 169.433 447.423 165.709V142.291H442.027V165.126C441.995 167.538 441.311 169.377 439.976 170.64C438.609 171.968 436.875 172.632 434.776 172.632C432.676 172.632 430.959 171.968 429.624 170.64C428.257 169.377 427.557 167.538 427.524 165.126V142.291H422.128V165.709Z" fill="#292929"/>
<path d="M460.284 177.708H475.275C478.075 177.708 480.411 176.777 482.283 174.915C484.171 173.134 485.131 170.713 485.164 167.652C485.164 165.806 484.7 164.097 483.772 162.526C482.779 161.004 481.314 159.992 479.377 159.49V159.393C480.403 158.907 481.265 158.364 481.965 157.765C482.665 157.198 483.202 156.599 483.577 155.968C484.309 154.64 484.659 153.247 484.627 151.789C484.627 148.939 483.739 146.648 481.965 144.915C480.207 143.198 477.579 142.324 474.079 142.291H460.284V177.708ZM473.981 161.992C475.983 162.024 477.448 162.551 478.376 163.571C479.304 164.607 479.768 165.854 479.768 167.312C479.768 168.737 479.304 169.968 478.376 171.004C477.448 172.057 475.983 172.599 473.981 172.632H465.68V161.992H473.981ZM473.469 147.077C475.438 147.109 476.887 147.587 477.815 148.51C478.759 149.498 479.231 150.704 479.231 152.13C479.231 153.555 478.759 154.737 477.815 155.676C476.887 156.696 475.438 157.206 473.469 157.206H465.68V147.077H473.469Z" fill="#292929"/>
<path d="M495.583 160C495.583 164.049 495.705 166.785 495.95 168.211C496.08 168.972 496.243 169.603 496.438 170.105C496.649 170.591 496.885 171.101 497.146 171.636C498.009 173.271 499.392 174.713 501.297 175.96C503.168 177.255 505.504 177.935 508.304 178C511.136 177.935 513.496 177.255 515.384 175.96C517.256 174.713 518.607 173.271 519.437 171.636C520.04 170.777 520.455 169.636 520.683 168.211C520.894 166.785 521 164.049 521 160C521 155.887 520.894 153.134 520.683 151.741C520.455 150.348 520.04 149.223 519.437 148.364C518.607 146.729 517.256 145.271 515.384 143.992C513.496 142.696 511.136 142.032 508.304 142C505.504 142.032 503.168 142.696 501.297 143.992C499.392 145.271 498.009 146.729 497.146 148.364C496.609 149.223 496.21 150.348 495.95 151.741C495.705 153.134 495.583 155.887 495.583 160ZM501.004 160C501.004 156.518 501.134 154.146 501.394 152.883C501.622 151.684 502.086 150.704 502.786 149.943C503.356 149.215 504.104 148.607 505.032 148.121C505.944 147.652 507.034 147.401 508.304 147.368C509.59 147.401 510.705 147.652 511.649 148.121C512.544 148.607 513.26 149.215 513.797 149.943C514.497 150.704 514.977 151.684 515.238 152.883C515.482 154.146 515.604 156.518 515.604 160C515.604 163.482 515.482 165.838 515.238 167.069C514.977 168.3 514.497 169.296 513.797 170.057C513.26 170.785 512.544 171.377 511.649 171.83C510.705 172.364 509.59 172.632 508.304 172.632C507.034 172.632 505.944 172.364 505.032 171.83C504.104 171.377 503.356 170.785 502.786 170.057C502.086 169.296 501.622 168.3 501.394 167.069C501.134 165.838 501.004 163.482 501.004 160Z" fill="#292929"/>
</svg>
