<svg width="48" height="48" viewBox="0 0 48 48" fill="none" xmlns="http://www.w3.org/2000/svg">
<g clip-path="url(#clip0_77_9)">
<path d="M20.9306 47.4411C18.08 46.0596 17.585 45.6743 17.585 45.6743C17.585 45.6743 14.8508 43.8785 17.3597 42.2572C19.8685 40.6358 32.8272 33.3405 32.8272 33.3405C32.8272 33.3405 34.9237 32.2503 35.7645 30.42C35.8412 30.0319 35.8745 29.6364 35.8639 29.241C35.834 28.4925 34.9443 27.782 34.4961 27.5883C34.0479 27.3946 33.9825 27.4308 33.9825 27.4308H20.7433C20.7433 27.4308 13.7877 26.5445 22.214 21.4743C30.6402 16.4042 40.2846 11.0955 40.2846 11.0955C40.9347 10.6671 41.6992 10.4452 42.4777 10.4592C42.6278 10.464 42.7622 10.4704 42.8825 10.4774C43.8621 10.3465 44.9571 10.6939 45.0372 12.8555C45.1837 16.8196 45.0912 31.7069 45.0912 32.7048C45.0912 33.7026 44.5715 35.5366 43.8232 36.4542C43.075 37.3719 43.2083 37.4431 41.9617 38.39C40.715 39.3369 26.4498 47.2084 26.4498 47.2084C25.5068 47.722 24.4512 47.9939 23.3774 47.9999C22.5299 48.0026 21.6929 47.8115 20.9306 47.4411ZM1.97399 32.3072C1.97399 27.3997 1.91992 16.2932 1.91992 15.2954C1.91992 14.2975 2.43967 12.4635 3.18794 11.5456C3.9362 10.6276 3.80297 10.5569 5.04948 9.60994C6.29599 8.66302 20.5612 0.791518 20.5612 0.791518C20.5612 0.791518 23.23 -0.822624 26.0804 0.558857C28.9309 1.94034 29.426 2.32562 29.426 2.32562C29.426 2.32562 32.1596 4.12165 29.6509 5.74311C27.1422 7.36457 14.1838 14.6596 14.1838 14.6596C14.1838 14.6596 10.8885 16.3728 10.9039 19.1105C10.9192 21.8482 10.9039 28.4343 10.9039 28.4343C10.9039 28.4343 11.0298 31.0177 8.46027 32.651C6.94941 33.6111 4.97227 35.02 3.59985 35.0203C2.63831 35.0203 1.97399 34.3291 1.97399 32.3072Z" fill="#292929"/>
</g>
<defs>
<clipPath id="clip0_77_9">
<rect width="43.2" height="48" fill="white" transform="translate(1.91992)"/>
</clipPath>
</defs>
</svg>
