<svg width="20" height="20" viewBox="0 0 20 20" fill="none" xmlns="http://www.w3.org/2000/svg">
<path d="M17.7892 3.77364L13.6954 18.2971C13.6271 18.543 13.4848 18.7619 13.2877 18.9241C13.0906 19.0862 12.8483 19.1837 12.5938 19.2033H12.4845C12.249 19.2028 12.0185 19.1358 11.8195 19.01C11.6205 18.8842 11.461 18.7048 11.3595 18.4924L8.5704 12.6018C8.54302 12.5426 8.53433 12.4765 8.5455 12.4123C8.55666 12.3481 8.58716 12.2888 8.6329 12.2424L12.6407 8.23458C12.7035 8.17773 12.754 8.10872 12.7893 8.03175C12.8245 7.95478 12.8438 7.87145 12.8459 7.78681C12.8479 7.70216 12.8328 7.61798 12.8014 7.53937C12.7699 7.46076 12.7229 7.38935 12.663 7.32948C12.6031 7.26961 12.5317 7.22253 12.4531 7.1911C12.3745 7.15966 12.2903 7.14453 12.2057 7.14661C12.121 7.14869 12.0377 7.16795 11.9607 7.20322C11.8838 7.23849 11.8147 7.28902 11.7579 7.35176L7.75009 11.3674C7.70366 11.4131 7.64438 11.4436 7.58017 11.4548C7.51595 11.466 7.44986 11.4573 7.39071 11.4299L1.53134 8.65645C1.30201 8.54813 1.10947 8.37495 0.977554 8.15833C0.845638 7.94171 0.780135 7.69117 0.78915 7.4377C0.802978 7.17673 0.898762 6.92677 1.06287 6.72338C1.22698 6.52 1.45106 6.37356 1.70321 6.30489L16.2579 2.20333C16.5125 2.13063 16.7835 2.14063 17.0321 2.23189C17.2806 2.32316 17.4937 2.49097 17.6407 2.71114C17.7394 2.8676 17.8036 3.04325 17.8292 3.22643C17.8548 3.40961 17.8411 3.59614 17.7892 3.77364Z" fill="#292929"/>
</svg>
