<svg width="20" height="20" viewBox="0 0 20 20" fill="none" xmlns="http://www.w3.org/2000/svg">
<path d="M10.3539 16.0011C9.88326 15.0157 9.72148 14.6775 9.41263 13.9274C8.19193 11.0006 7.9272 10.6183 6.98594 10.3241C7.76542 10.1035 8.11839 9.91231 8.51549 9.52992C9.04495 9.00046 9.32439 8.22098 9.32439 7.23559C9.32439 5.2207 8.00074 4.04412 5.6917 4.04412H2.0296C1.13246 4.04412 0.617704 4.02941 0 4C0.0882435 4.72065 0.117658 5.17658 0.117658 6.0296V13.9421C0.117658 14.9275 0.0882435 15.354 0 16.0011H2.6473C2.55906 15.3687 2.52964 14.8686 2.52964 13.9274V11.2065H4.38276C4.92692 11.2065 5.35343 11.3683 5.6917 11.736C6.02997 12.0743 6.27999 12.589 6.69179 13.6627C7.20654 15.0451 7.38303 15.604 7.42715 16.0011H10.3539ZM2.52964 9.13282V6.08843H5.20636C6.26528 6.08843 6.80945 6.57377 6.80945 7.52974C6.80945 8.50041 6.16233 9.13282 5.16224 9.13282H2.52964Z" fill="#292929"/>
<path d="M20 12.2802C19.9706 12.0007 19.9706 11.986 19.9706 11.9272C19.9118 10.8242 19.8382 10.3535 19.5735 9.63287C18.9411 7.94154 17.5439 7.00028 15.6172 7.00028C12.9699 7.00028 11.2198 8.85339 11.2198 11.6478C11.2198 13.0744 11.6757 14.3245 12.514 15.1481C13.2788 15.9129 14.3818 16.31 15.7055 16.31C17.0438 16.31 18.1616 15.8982 18.9411 15.1187C19.3382 14.7363 19.5588 14.398 19.8823 13.6921L17.7498 13.0597C17.4409 13.9568 16.735 14.4421 15.7055 14.4421C14.9995 14.4421 14.426 14.1921 14.0289 13.7068C13.7347 13.3391 13.6024 12.9714 13.5288 12.2802H20ZM13.5729 10.5741C13.8524 9.42697 14.5583 8.83868 15.6467 8.83868C16.3232 8.83868 16.8821 9.0887 17.235 9.54463C17.4556 9.83877 17.5586 10.1035 17.6468 10.5741H13.5729Z" fill="#292929"/>
</svg>
