<svg width="320" height="79" viewBox="0 0 320 79" fill="none" xmlns="http://www.w3.org/2000/svg">
<path fill-rule="evenodd" clip-rule="evenodd" d="M0 38.0621L4.30759 33.1336C7.75367 35.964 11.8533 37.399 16.6065 37.4386C22.2311 37.3594 25.0831 35.3504 25.1623 31.4116C25.2019 28.1853 23.3204 26.2456 19.5178 25.5924C17.775 25.3549 15.8638 25.0877 13.7843 24.7908C10.061 24.1772 7.22883 22.8016 5.28794 20.664C3.28763 18.4669 2.28748 15.7949 2.28748 12.6478C2.28748 8.8673 3.5451 5.81916 6.06034 3.50337C8.49635 1.20738 11.9523 0.0395861 16.4283 0C21.8152 0.118758 26.4991 1.61314 30.4799 4.48313L26.8259 9.88664C23.5779 7.74899 20.0031 6.64058 16.1015 6.5614C14.0814 6.5614 12.3979 7.06613 11.0512 8.07557C9.64505 9.12461 8.92216 10.6883 8.88255 12.7665C8.88255 14.0135 9.36777 15.1417 10.3382 16.1511C11.3087 17.1804 12.8634 17.8929 15.0023 18.2888C16.1906 18.4867 17.8146 18.7143 19.8743 18.9717C23.9344 19.5259 26.9348 20.9807 28.8757 23.336C30.7968 25.6518 31.7574 28.3437 31.7574 31.4116C31.5395 39.6851 26.4694 43.8812 16.5471 44C10.1303 44 4.61457 42.0207 0 38.0621ZM70.1977 43.6437H63.6323V24.7314H46.4911V43.6437H39.9257V0.356275H46.4911V18.9123H63.6323V0.356275H70.1977V43.6437ZM79.1088 22C79.1088 26.9483 79.2573 30.2933 79.5544 32.0351C79.7128 32.9654 79.9109 33.7373 80.1485 34.3509C80.406 34.9447 80.6932 35.5681 81.0101 36.2213C82.0597 38.2204 83.7431 39.982 86.0603 41.5061C88.3379 43.0895 91.1799 43.9208 94.5864 44C98.0325 43.9208 100.904 43.0895 103.202 41.5061C105.479 39.982 107.123 38.2204 108.133 36.2213C108.866 35.1723 109.371 33.7769 109.648 32.0351C109.906 30.2933 110.034 26.9483 110.034 22C110.034 16.9726 109.906 13.6077 109.648 11.9055C109.371 10.2033 108.866 8.82771 108.133 7.77868C107.123 5.77958 105.479 3.9982 103.202 2.43455C100.904 0.851102 98.0325 0.0395861 94.5864 0C91.1799 0.0395861 88.3379 0.851102 86.0603 2.43455C83.7431 3.9982 82.0597 5.77958 81.0101 7.77868C80.3565 8.82771 79.8713 10.2033 79.5544 11.9055C79.2573 13.6077 79.1088 16.9726 79.1088 22ZM85.7038 22C85.7038 17.7445 85.8623 14.8448 86.1792 13.3009C86.4564 11.8363 87.0209 10.6388 87.8725 9.7085C88.5657 8.81781 89.4767 8.07557 90.6056 7.48178C91.7147 6.90778 93.0416 6.60099 94.5864 6.5614C96.151 6.60099 97.5076 6.90778 98.6563 7.48178C99.7456 8.07557 100.617 8.81781 101.271 9.7085C102.122 10.6388 102.706 11.8363 103.023 13.3009C103.32 14.8448 103.469 17.7445 103.469 22C103.469 26.2555 103.32 29.1354 103.023 30.6397C102.706 32.1439 102.122 33.3612 101.271 34.2915C100.617 35.1822 99.7456 35.9046 98.6563 36.4588C97.5076 37.112 96.151 37.4386 94.5864 37.4386C93.0416 37.4386 91.7147 37.112 90.6056 36.4588C89.4767 35.9046 88.5657 35.1822 87.8725 34.2915C87.0209 33.3612 86.4564 32.1439 86.1792 30.6397C85.8623 29.1354 85.7038 26.2555 85.7038 22ZM133.739 32.0351C133.441 30.2933 133.293 26.9483 133.293 22C133.293 16.9726 133.441 13.6077 133.739 11.9055C134.055 10.2033 134.541 8.82771 135.194 7.77868C136.244 5.77958 137.927 3.9982 140.245 2.43455C142.522 0.851102 145.364 0.0395861 148.771 0C152.217 0.0395861 155.088 0.851102 157.386 2.43455C159.663 3.9982 161.307 5.77958 162.317 7.77868C163.05 8.82771 163.555 10.2033 163.832 11.9055C164.09 13.6077 164.218 16.9726 164.218 22C164.218 26.9483 164.09 30.2933 163.832 32.0351C163.555 33.7769 163.05 35.1723 162.317 36.2213C161.307 38.2204 159.663 39.982 157.386 41.5061C155.088 43.0895 152.217 43.9208 148.771 44C145.364 43.9208 142.522 43.0895 140.245 41.5061C137.927 39.982 136.244 38.2204 135.194 36.2213C134.877 35.5681 134.59 34.9447 134.333 34.3509C134.095 33.7373 133.897 32.9654 133.739 32.0351ZM140.363 13.3009C140.046 14.8448 139.888 17.7445 139.888 22C139.888 26.2555 140.046 29.1354 140.363 30.6397C140.641 32.1439 141.205 33.3612 142.057 34.2915C142.75 35.1822 143.661 35.9046 144.79 36.4588C145.899 37.112 147.226 37.4386 148.771 37.4386C150.335 37.4386 151.692 37.112 152.841 36.4588C153.93 35.9046 154.801 35.1822 155.455 34.2915C156.306 33.3612 156.891 32.1439 157.208 30.6397C157.505 29.1354 157.653 26.2555 157.653 22C157.653 17.7445 157.505 14.8448 157.208 13.3009C156.891 11.8363 156.306 10.6388 155.455 9.7085C154.801 8.81781 153.93 8.07557 152.841 7.48178C151.692 6.90778 150.335 6.60099 148.771 6.5614C147.226 6.60099 145.899 6.90778 144.79 7.48178C143.661 8.07557 142.75 8.81781 142.057 9.7085C141.205 10.6388 140.641 11.8363 140.363 13.3009ZM173.13 43.6437H179.695V30.4615L187.3 22.475L199.094 43.6437H206.877L191.548 17.4278L205.422 0.356275H197.638L179.814 22.6532H179.695V0.356275H173.13V43.6437ZM216.383 39.8138C213.412 37.1417 211.907 33.5295 211.867 28.9771V0.356275H218.432V28.2645C218.472 31.2137 219.324 33.4602 220.987 35.004C222.611 36.6271 224.701 37.4386 227.255 37.4386C229.81 37.4386 231.92 36.6271 233.583 35.004C235.207 33.4602 236.039 31.2137 236.079 28.2645V0.356275H242.644V28.9771C242.565 33.5295 241.089 37.1417 238.218 39.8138C235.326 42.565 231.672 43.9604 227.255 44C222.918 43.9604 219.294 42.565 216.383 39.8138ZM252.209 43.6437H270.449C273.855 43.6437 276.698 42.5056 278.975 40.2294C281.272 38.0522 282.441 35.0931 282.481 31.3522C282.481 29.0958 281.916 27.0076 280.787 25.0877C279.579 23.2272 277.797 21.9901 275.44 21.3765V21.2578C276.688 20.664 277.737 20.0009 278.589 19.2686C279.441 18.5758 280.094 17.8435 280.55 17.0715C281.441 15.4485 281.867 13.7463 281.827 11.9649C281.827 8.48133 280.748 5.68061 278.589 3.56275C276.45 1.46469 273.251 0.395861 268.993 0.356275H252.209V43.6437ZM268.875 24.4345C271.311 24.4741 273.093 25.1174 274.222 26.3644C275.351 27.6311 275.915 29.1552 275.915 30.9366C275.915 32.6784 275.351 34.1826 274.222 35.4494C273.093 36.7359 271.311 37.399 268.875 37.4386H258.774V24.4345H268.875ZM268.251 6.20513C270.647 6.24471 272.41 6.82861 273.539 7.95681C274.687 9.16419 275.262 10.6388 275.262 12.3806C275.262 14.1224 274.687 15.5673 273.539 16.7152C272.41 17.9622 270.647 18.5857 268.251 18.5857H258.774V6.20513H268.251ZM289.52 32.0351C289.223 30.2933 289.074 26.9483 289.074 22C289.074 16.9726 289.223 13.6077 289.52 11.9055C289.837 10.2033 290.322 8.82771 290.976 7.77868C292.025 5.77958 293.709 3.9982 296.026 2.43455C298.304 0.851102 301.146 0.0395861 304.552 0C307.998 0.0395861 310.87 0.851102 313.167 2.43455C315.445 3.9982 317.089 5.77958 318.099 7.77868C318.832 8.82771 319.337 10.2033 319.614 11.9055C319.871 13.6077 320 16.9726 320 22C320 26.9483 319.871 30.2933 319.614 32.0351C319.337 33.7769 318.832 35.1723 318.099 36.2213C317.089 38.2204 315.445 39.982 313.167 41.5061C310.87 43.0895 307.998 43.9208 304.552 44C301.146 43.9208 298.304 43.0895 296.026 41.5061C293.709 39.982 292.025 38.2204 290.976 36.2213C290.659 35.5681 290.372 34.9447 290.114 34.3509C289.877 33.7373 289.679 32.9654 289.52 32.0351ZM296.145 13.3009C295.828 14.8448 295.67 17.7445 295.67 22C295.67 26.2555 295.828 29.1354 296.145 30.6397C296.422 32.1439 296.987 33.3612 297.838 34.2915C298.531 35.1822 299.442 35.9046 300.571 36.4588C301.68 37.112 303.007 37.4386 304.552 37.4386C306.117 37.4386 307.473 37.112 308.622 36.4588C309.711 35.9046 310.583 35.1822 311.236 34.2915C312.088 33.3612 312.672 32.1439 312.989 30.6397C313.286 29.1354 313.435 26.2555 313.435 22C313.435 17.7445 313.286 14.8448 312.989 13.3009C312.672 11.8363 312.088 10.6388 311.236 9.7085C310.583 8.81781 309.711 8.07557 308.622 7.48178C307.473 6.90778 306.117 6.60099 304.552 6.5614C303.007 6.60099 301.68 6.90778 300.571 7.48178C299.442 8.07557 298.531 8.81781 297.838 9.7085C296.987 10.6388 296.422 11.8363 296.145 13.3009ZM58.1901 68.3758H54.5601C53.5701 68.3758 52.8661 68.3318 52.1621 68.2658V70.7078C52.8661 70.6198 53.7021 70.5758 54.5601 70.5758H57.1781C56.3201 71.6978 55.9241 72.1378 55.0661 72.9078C53.8561 74.0078 52.7121 74.7998 51.2821 75.5478C52.0961 76.4498 52.2281 76.6478 52.7781 77.7258C53.7681 77.1318 54.4281 76.6478 55.4181 75.7678C56.7161 74.6018 57.354 73.8318 58.2341 72.3578C58.2213 73.1453 58.2086 73.7422 58.2002 74.1399L58.2001 74.1416L58.2001 74.142L58.2 74.1461C58.1939 74.4337 58.1901 74.616 58.1901 74.6898V76.7578C58.1901 77.4838 58.1461 78.0998 58.0581 78.8038H60.6541C60.5661 78.1218 60.5221 77.4838 60.5221 76.7798V74.7338C60.5221 74.1398 60.5 73.1058 60.4561 72.3798C61.3581 73.7878 61.9741 74.5138 63.0961 75.5038C63.8661 76.1858 64.3281 76.5378 65.8901 77.5938C66.396 76.5818 66.7261 76.0758 67.3641 75.2398C65.9781 74.5798 65.0321 73.9858 63.8441 72.9958C62.8981 72.2038 62.4141 71.7198 61.4901 70.5758H64.438C65.12 70.5758 65.956 70.6198 66.7701 70.7078V68.2438C66.0441 68.3318 65.1861 68.3758 64.3721 68.3758H60.5221V66.5718H63.3161C63.6021 66.5718 63.9541 66.5718 64.3721 66.5938C64.5921 66.6158 64.7681 66.6158 64.8561 66.6158C65.1014 66.6158 65.1947 66.6158 65.2878 66.6211C65.3446 66.6243 65.4013 66.6294 65.4925 66.6377L65.4936 66.6378L65.494 66.6378C65.428 66.0218 65.4061 65.4938 65.4061 64.5698V61.4458C65.4061 60.4338 65.428 59.9938 65.494 59.3118C64.856 59.3998 64.1301 59.4218 63.0741 59.4218H56.0561C54.8681 59.4218 54.2521 59.3998 53.6141 59.3118C53.68 59.9498 53.7021 60.4778 53.7021 61.3138V64.5258C53.7021 65.4498 53.68 65.9998 53.6141 66.6598C54.208 66.5938 54.8901 66.5718 55.8581 66.5718H58.1901V68.3758ZM56.0121 61.5778H63.0521V64.4158H56.0121V61.5778ZM48.8401 76.2078C48.8401 77.2418 48.7961 77.9018 48.7081 78.7818H51.2381C51.1501 77.9018 51.1281 77.1758 51.1281 76.2298V64.1518C51.9421 62.5458 52.3601 61.5558 52.8221 60.0598L52.8221 60.0597C52.9565 59.5968 52.9996 59.4482 53.0548 59.3041C53.0809 59.2359 53.1097 59.1688 53.1521 59.0698L50.6881 58.2778C50.5781 59.0478 50.2701 60.1698 49.8521 61.2698C48.9501 63.6458 47.762 65.4938 46.134 67.0998C46.662 68.1118 46.772 68.4198 47.19 69.7618C47.982 68.9258 48.3341 68.4418 48.8841 67.5398C48.8401 68.7278 48.8401 69.2338 48.8401 69.9598V76.2078ZM31.0421 71.5438C33.3521 69.2558 34.584 67.2538 35.926 63.6678H31.3501C29.9861 66.0878 28.424 67.9358 26.18 69.8058C25.5861 68.9478 25.1241 68.4858 24.2661 67.9138C26.642 66.1538 28.3361 64.1518 29.6561 61.5338C30.2941 60.2358 30.6021 59.4218 30.7341 58.5198L33.528 58.9598C33.3521 59.2898 33.3081 59.3998 33.0881 59.9718C33.0064 60.1623 32.9248 60.349 32.8401 60.5428C32.7193 60.819 32.5923 61.1096 32.4501 61.4458H36.2561C37.07 61.4458 37.51 61.4238 37.972 61.3358L39.182 62.5238C39.0882 62.7456 39.0308 62.8814 38.9764 63.0184C38.8904 63.2347 38.8121 63.4541 38.6101 64.0198C37.9501 65.7798 37.224 67.3198 36.3 68.8598C36.8721 69.9378 37.73 71.1478 38.676 72.2038C39.49 73.1058 40.5681 74.0078 41.9981 74.9538C42.8561 75.5258 43.23 75.7238 44.33 76.2078C43.582 76.9558 43.1421 77.6158 42.6361 78.6718C39.0941 76.6478 36.542 74.1398 34.87 71.0158C33.968 72.1598 32.9121 73.3038 31.5481 74.5358C30.6021 75.3938 29.4141 76.2958 28.0721 77.1758C27.17 77.7478 26.6861 78.0118 25.3881 78.6498C24.9041 77.6598 24.42 77.0218 23.738 76.4498C26.8621 75.0418 28.93 73.6558 31.0421 71.5438ZM20.7021 66.3298C19.8221 66.2198 19.1621 66.1758 17.9521 66.1758H12.254C12.804 68.1558 13.97 70.2898 15.422 71.9398C17.05 73.7878 18.8761 75.0418 21.4941 76.1198C20.746 76.9998 20.438 77.4618 19.8881 78.6498C17.534 77.4398 16.0161 76.3178 14.454 74.6238C13.024 73.1058 11.946 71.3458 11.132 69.2998C10.472 71.5658 9.30605 73.4578 7.54605 75.1958C6.05005 76.6698 4.46605 77.7038 2.28805 78.6498C1.91405 77.8138 1.45205 77.1318 0.748047 76.3398C2.33205 75.7018 3.21205 75.2398 4.31205 74.4698C7.26005 72.3798 8.73405 69.9158 9.26205 66.1758H4.07005C2.68405 66.1758 2.04605 66.2198 1.32005 66.3298V63.5358C2.00205 63.6458 2.79405 63.6898 4.09205 63.6898H9.48205C9.48812 63.5379 9.49378 63.4002 9.49902 63.2728C9.5317 62.4775 9.54805 62.0798 9.54805 61.0938C9.54805 60.1698 9.48205 59.5098 9.39405 58.8938H12.298C12.188 59.6638 12.166 59.9938 12.144 61.4678C12.144 62.1786 12.1304 62.6434 12.1138 63.2068L12.1138 63.2071L12.1138 63.2074C12.1094 63.3588 12.1047 63.5174 12.1 63.6898H17.93C19.184 63.6898 19.9541 63.6458 20.7021 63.5358V66.3298ZM86.6802 68.7278C86.3062 67.8918 85.9982 67.4738 85.3162 66.8578V74.5578V76.0538C85.3162 76.1489 85.3246 76.2608 85.3362 76.4155L85.3362 76.4158C85.3434 76.5115 85.3518 76.6234 85.3602 76.7578H83.1162V75.4598H80.6962V77.3738H78.3422C78.4302 76.5818 78.4742 75.7678 78.4742 74.6898V61.9078C78.4742 60.9398 78.4522 60.3678 78.3862 59.7078C78.8702 59.7518 79.2442 59.7738 80.3002 59.7738H83.4682C84.4362 59.7738 84.8542 59.7518 85.3602 59.7078C85.3162 60.2358 85.3162 60.5658 85.3162 61.8638V66.7258C86.9222 66.0658 87.8462 65.3618 88.5502 64.3058C89.0562 63.5358 89.4302 62.4578 89.5182 61.4238H88.5722C87.5382 61.4238 86.7902 61.4678 86.0862 61.5338V59.1138C86.6802 59.2018 87.6482 59.2458 88.6382 59.2458H95.4582C96.2502 59.2458 97.1082 59.2018 97.5922 59.1578C97.5329 59.5533 97.5091 60.0198 97.441 61.3559L97.441 61.3565L97.4162 61.8418C97.2622 65.1638 96.9762 66.6818 96.4042 67.3198C95.9202 67.8478 95.3042 68.0238 93.8302 68.0238C93.3022 68.0238 92.7962 68.0018 91.8722 67.9138C91.8282 67.0998 91.6962 66.5278 91.3222 65.5818C92.2462 65.7578 93.0162 65.8458 93.6322 65.8458C94.3802 65.8458 94.6222 65.6478 94.7542 64.9438C94.9522 63.8438 95.0402 62.6998 95.0622 61.4238H91.8502C91.6962 63.0078 91.2782 64.3498 90.5962 65.4278C90.0022 66.3738 89.1882 67.2098 88.2862 67.8478C87.8682 68.1338 87.5162 68.3318 86.6802 68.7278ZM83.1162 61.9298H80.7182V66.3518H83.1162V61.9298ZM83.1162 68.5078H80.7182V73.2818H83.1162V68.5078ZM94.7542 78.7818V77.5938H88.9902V78.7158H86.5482C86.6142 77.9898 86.6582 77.2858 86.6582 76.4718V71.2138C86.6582 70.352 86.618 69.8116 86.5761 69.247V69.247L86.5702 69.1678C87.0322 69.2118 87.5382 69.2338 88.3302 69.2338H95.2822C96.2062 69.2338 96.6682 69.2118 97.1302 69.1458C97.0862 69.7178 97.0642 70.2898 97.0642 71.2138V76.4278C97.0642 77.4398 97.0862 78.0778 97.1742 78.7818H94.7542ZM94.7542 71.3898H88.9682V75.4158H94.7542V71.3898Z" fill="#292929"/>
</svg>
