<svg width="20" height="20" viewBox="0 0 20 20" fill="none" xmlns="http://www.w3.org/2000/svg">
<path d="M19.1955 6.07039L16.8361 8.42195C16.3674 13.8829 11.758 18.1251 6.25021 18.1251C5.1174 18.1251 4.1799 17.9454 3.46896 17.5938C2.89865 17.3048 2.66427 17.0001 2.60177 16.9063C2.55006 16.8278 2.51674 16.7386 2.50429 16.6454C2.49184 16.5522 2.50058 16.4573 2.52987 16.368C2.55916 16.2786 2.60823 16.197 2.67343 16.1293C2.73864 16.0615 2.81829 16.0093 2.90646 15.9766C2.92208 15.9688 4.76583 15.2657 5.96115 13.9141C5.21985 13.3863 4.5683 12.7427 4.03146 12.0079C2.96115 10.5548 1.82833 8.03132 2.50802 4.2657C2.52939 4.15375 2.58059 4.04965 2.65622 3.96439C2.73185 3.87913 2.82911 3.81589 2.93771 3.78132C3.04666 3.74565 3.16332 3.74063 3.27493 3.76681C3.38654 3.79299 3.4888 3.84936 3.57052 3.92976C3.59396 3.96101 6.19552 6.52351 9.37521 7.35164V6.87507C9.37828 6.37954 9.47892 5.88945 9.67139 5.43281C9.86387 4.97617 10.1444 4.56191 10.497 4.21369C10.8495 3.86547 11.2673 3.59011 11.7263 3.40332C12.1853 3.21653 12.6765 3.12199 13.1721 3.12507C13.8225 3.13435 14.4594 3.31193 15.0207 3.64053C15.582 3.96912 16.0487 4.43751 16.3752 5.00007H18.7502C18.8736 4.99969 18.9943 5.03583 19.0972 5.10396C19.2001 5.17208 19.2805 5.26913 19.3283 5.38289C19.3734 5.49833 19.3848 5.62416 19.3613 5.74583C19.3378 5.86749 19.2803 5.98002 19.1955 6.07039Z" fill="#292929"/>
</svg>
