<svg width="496" height="150" viewBox="0 0 496 150" fill="none" xmlns="http://www.w3.org/2000/svg">
<path d="M33.3333 1H116.667C134.524 1 149 15.4761 149 33.3333V116.667C149 134.524 134.524 149 116.667 149H33.3333C15.4761 149 1 134.524 1 116.667V33.3333C1 15.4761 15.4761 1 33.3333 1Z" fill="white" stroke="#ADACAC" stroke-width="2"/>
<path d="M66.8062 102.174C66.8062 112.179 58.7831 120.29 48.8861 120.29C38.989 120.29 30.9659 112.179 30.9659 102.174C30.9659 92.1689 38.989 84.0581 48.8861 84.0581C58.7831 84.0581 66.8062 92.1689 66.8062 102.174Z" fill="url(#paint0_linear_176_4)"/>
<path d="M119.133 47.8259C119.133 57.8311 111.11 65.9418 101.213 65.9418C91.3158 65.9418 83.2927 57.8311 83.2927 47.8259C83.2927 37.8207 91.3158 29.71 101.213 29.71C111.11 29.71 119.133 37.8207 119.133 47.8259Z" fill="#FEA805"/>
<path fill-rule="evenodd" clip-rule="evenodd" d="M77.4744 39.5981C70.3005 39.9985 62.4438 40.7371 55.4456 41.8969C51.6518 42.5256 47.9688 43.301 44.7167 44.2626C41.6098 45.1812 38.2678 46.4468 35.5876 48.3265C33.0569 50.1014 28.9335 54.1078 29.8374 60.3761C30.5913 65.605 34.5565 68.9335 37.3294 70.8249C43.4527 75.0015 54.4472 79.1895 70.9943 83.7517C81.1802 86.56 85.7253 88.0567 91.1776 90.2175C92.9696 90.9277 92.4585 92.5527 91.536 92.7538C88.3954 93.4384 89.3459 93.279 85.5531 93.8015C82.0437 94.2849 78.6453 94.6662 75.7505 94.975C75.0614 95.0485 74.3836 95.1196 73.7311 95.188L73.7155 95.1897L73.7056 95.1907L73.7009 95.1912C73.2894 95.2343 72.888 95.2764 72.5003 95.3174C73.4356 97.3484 73.9743 99.6141 73.9743 102.174C73.9743 106.011 73.1314 109.649 71.6227 112.909C72.4678 112.806 73.6504 112.682 75.1778 112.521L75.1789 112.521C75.8952 112.446 76.6872 112.363 77.5559 112.27C80.5117 111.955 84.1106 111.552 87.8757 111.034C95.0825 110.041 103.987 108.494 110.085 105.875C111.686 105.188 113.413 104.297 114.972 103.111C116.482 101.963 118.374 100.128 119.449 97.3932C122.165 90.4804 117.695 85.1276 114.657 82.6018C111.375 79.8724 106.537 77.4108 100.469 75.0063C94.2331 72.5348 86.0328 69.8714 75.5208 66.9732C67.4054 64.7357 63.3307 63.7815 58.563 61.9567C57.6643 61.6127 57.1294 61.232 57.1294 60.1451C57.1294 59.4204 57.7202 58.9543 59.2798 58.6958C65.3196 57.6949 71.2395 57.3813 77.8153 56.9977C76.7235 54.1534 76.1247 51.0605 76.1247 47.8262C76.1247 44.9462 76.5995 42.1783 77.4744 39.5981ZM104.006 96.2872C104.006 96.2872 103.998 96.2794 103.985 96.2634C104 96.2792 104.006 96.2872 104.006 96.2872Z" fill="url(#paint1_linear_176_4)"/>
<path d="M214.991 83.8905C214.991 86.5809 214.3 88.9982 212.919 91.1425C211.557 93.2867 209.555 94.9657 206.912 96.1794C204.268 97.3931 201.135 98 197.511 98C193.165 98 189.581 97.1706 186.758 95.5119C184.756 94.3184 183.124 92.7304 181.862 90.748C180.621 88.7454 180 86.8034 180 84.9222C180 83.8298 180.37 82.8993 181.111 82.1306C181.872 81.3417 182.833 80.9472 183.995 80.9472C184.936 80.9472 185.727 81.2507 186.367 81.8575C187.028 82.4644 187.589 83.3646 188.049 84.558C188.61 85.9741 189.211 87.1574 189.852 88.1082C190.512 89.0589 191.433 89.8478 192.615 90.4749C193.796 91.0818 195.348 91.3852 197.27 91.3852C199.913 91.3852 202.056 90.7682 203.698 89.5343C205.36 88.2801 206.191 86.7225 206.191 84.8615C206.191 83.3848 205.74 82.1913 204.839 81.281C203.958 80.3505 202.807 79.6425 201.385 79.157C199.983 78.6715 198.101 78.1557 195.738 77.6095C192.575 76.861 189.922 75.9912 187.779 75C185.657 73.9886 183.965 72.6231 182.703 70.9037C181.462 69.164 180.841 67.0097 180.841 64.4406C180.841 61.993 181.502 59.8184 182.823 57.9169C184.145 56.0154 186.057 54.5589 188.56 53.5475C191.063 52.5158 194.006 52 197.39 52C200.094 52 202.426 52.3439 204.389 53.0317C206.371 53.6992 208.013 54.5994 209.314 55.7322C210.616 56.8448 211.567 58.018 212.168 59.252C212.768 60.4859 213.069 61.6895 213.069 62.8628C213.069 63.9349 212.688 64.9059 211.927 65.7757C211.187 66.6253 210.255 67.0501 209.134 67.0501C208.113 67.0501 207.332 66.7973 206.791 66.2916C206.271 65.7656 205.7 64.916 205.079 63.7427C204.278 62.0638 203.317 60.759 202.196 59.8285C201.075 58.8777 199.273 58.4024 196.79 58.4024C194.487 58.4024 192.625 58.9182 191.203 59.9499C189.801 60.9613 189.101 62.1851 189.101 63.6214C189.101 64.5114 189.341 65.2801 189.821 65.9274C190.302 66.5748 190.963 67.131 191.804 67.5963C192.645 68.0616 193.496 68.4257 194.357 68.6887C195.218 68.9516 196.639 69.336 198.622 69.8417C201.105 70.4283 203.347 71.0756 205.35 71.7836C207.372 72.4916 209.084 73.3514 210.486 74.3628C211.907 75.3742 213.009 76.6587 213.79 78.2164C214.591 79.7537 214.991 81.6451 214.991 83.8905Z" fill="#0181CB"/>
<path d="M230.009 57.0369V69.3259C231.05 68.1121 232.061 67.1513 233.042 66.4433C234.043 65.7353 235.145 65.2093 236.346 64.8654C237.547 64.5013 238.839 64.3193 240.221 64.3193C242.303 64.3193 244.145 64.7643 245.747 65.6544C247.369 66.5444 248.64 67.839 249.561 69.5383C250.142 70.5295 250.533 71.642 250.733 72.876C250.933 74.0897 251.033 75.4956 251.033 77.0937V92.9631C251.033 94.6218 250.653 95.876 249.892 96.7256C249.151 97.5752 248.16 98 246.918 98C244.215 98 242.864 96.321 242.864 92.9631V78.9749C242.864 76.325 242.473 74.292 241.692 72.876C240.911 71.4398 239.43 70.7216 237.247 70.7216C235.785 70.7216 234.464 71.1464 233.282 71.996C232.121 72.8254 231.25 73.9683 230.669 75.4248C230.229 76.6587 230.009 78.8536 230.009 82.0092V92.9631C230.009 94.6016 229.638 95.8558 228.897 96.7256C228.176 97.5752 227.165 98 225.864 98C223.161 98 221.809 96.321 221.809 92.9631V57.0369C221.809 55.358 222.159 54.1038 222.86 53.2744C223.581 52.4248 224.582 52 225.864 52C227.165 52 228.176 52.4248 228.897 53.2744C229.638 54.124 230.009 55.3782 230.009 57.0369Z" fill="#0181CB"/>
<path d="M279.897 93.3272C277.915 94.8848 275.992 96.058 274.13 96.847C272.288 97.6157 270.216 98 267.913 98C265.81 98 263.958 97.5853 262.356 96.7559C260.775 95.9063 259.553 94.7634 258.692 93.3272C257.831 91.8909 257.401 90.3333 257.401 88.6544C257.401 86.3887 258.111 84.4569 259.533 82.8588C260.955 81.2608 262.907 80.1887 265.39 79.6425C265.911 79.5211 267.202 79.248 269.265 78.8232C271.327 78.3984 273.089 78.0141 274.551 77.6702C276.032 77.3061 277.634 76.8712 279.356 76.3654C279.256 74.1807 278.816 72.5827 278.035 71.5712C277.274 70.5396 275.682 70.0237 273.259 70.0237C271.177 70.0237 269.605 70.3171 268.544 70.9037C267.502 71.4903 266.601 72.3703 265.841 73.5435C265.1 74.7168 264.569 75.4956 264.249 75.8799C263.948 76.2441 263.288 76.4261 262.266 76.4261C261.345 76.4261 260.544 76.1328 259.864 75.5462C259.203 74.9393 258.872 74.1706 258.872 73.2401C258.872 71.7836 259.383 70.3676 260.404 68.9921C261.425 67.6165 263.017 66.4837 265.18 65.5937C267.342 64.7036 270.035 64.2586 273.259 64.2586C276.863 64.2586 279.697 64.6935 281.759 65.5633C283.822 66.4129 285.273 67.7682 286.114 69.6293C286.975 71.4903 287.406 73.9582 287.406 77.033C287.406 78.9749 287.396 80.6236 287.376 81.9789C287.376 83.3342 287.366 84.8412 287.346 86.5C287.346 88.0576 287.596 89.686 288.097 91.3852C288.617 93.0642 288.877 94.1464 288.877 94.6319C288.877 95.4815 288.477 96.2603 287.676 96.9683C286.895 97.6561 286.004 98 285.003 98C284.162 98 283.331 97.6055 282.51 96.8166C281.689 96.0075 280.818 94.8443 279.897 93.3272ZM279.356 81.3417C278.155 81.7867 276.403 82.2621 274.1 82.7678C271.818 83.2533 270.236 83.6174 269.355 83.8602C268.474 84.0827 267.633 84.5378 266.832 85.2256C266.031 85.8931 265.63 86.8338 265.63 88.0475C265.63 89.3017 266.101 90.3738 267.042 91.2639C267.983 92.1337 269.214 92.5686 270.736 92.5686C272.358 92.5686 273.85 92.2146 275.211 91.5066C276.593 90.7784 277.604 89.8478 278.245 88.715C278.986 87.4609 279.356 85.3975 279.356 82.5251V81.3417Z" fill="#0181CB"/>
<path d="M303.895 86.0449V92.9631C303.895 94.642 303.505 95.9063 302.724 96.7559C301.943 97.5853 300.952 98 299.75 98C298.569 98 297.598 97.5752 296.837 96.7256C296.076 95.876 295.695 94.6218 295.695 92.9631V69.9024C295.695 66.1803 297.027 64.3193 299.69 64.3193C301.052 64.3193 302.033 64.7542 302.634 65.624C303.234 66.4938 303.565 67.7784 303.625 69.4776C304.606 67.7784 305.607 66.4938 306.628 65.624C307.669 64.7542 309.051 64.3193 310.773 64.3193C312.495 64.3193 314.167 64.7542 315.789 65.624C317.411 66.4938 318.222 67.6469 318.222 69.0831C318.222 70.0945 317.871 70.934 317.171 71.6016C316.49 72.2489 315.749 72.5726 314.948 72.5726C314.648 72.5726 313.917 72.3905 312.755 72.0264C311.614 71.642 310.603 71.4499 309.722 71.4499C308.52 71.4499 307.539 71.7735 306.778 72.4208C306.018 73.0479 305.427 73.9886 305.006 75.2427C304.586 76.4969 304.296 77.9938 304.135 79.7335C303.975 81.4529 303.895 83.5567 303.895 86.0449Z" fill="#0181CB"/>
<path d="M344.052 83.1926H328.013C328.033 85.0739 328.404 86.7326 329.125 88.1689C329.865 89.6051 330.837 90.6873 332.038 91.4156C333.259 92.1438 334.601 92.5079 336.063 92.5079C337.044 92.5079 337.935 92.3967 338.736 92.1741C339.557 91.9314 340.348 91.5673 341.109 91.0818C341.87 90.5761 342.57 90.04 343.211 89.4736C343.852 88.9072 344.683 88.1385 345.704 87.1675C346.125 86.8034 346.725 86.6214 347.506 86.6214C348.347 86.6214 349.028 86.854 349.549 87.3193C350.069 87.7845 350.329 88.442 350.329 89.2916C350.329 90.04 350.039 90.92 349.458 91.9314C348.878 92.9226 347.997 93.8835 346.815 94.814C345.654 95.7243 344.182 96.4828 342.4 97.0897C340.638 97.6966 338.606 98 336.303 98C331.037 98 326.942 96.4828 324.019 93.4485C321.095 90.4142 319.633 86.2977 319.633 81.0989C319.633 78.6513 319.994 76.3857 320.715 74.3021C321.436 72.1983 322.487 70.398 323.868 68.9011C325.25 67.4041 326.952 66.2612 328.974 65.4723C330.997 64.6631 333.239 64.2586 335.702 64.2586C338.906 64.2586 341.649 64.9463 343.932 66.3219C346.235 67.6772 347.957 69.4371 349.098 71.6016C350.239 73.766 350.81 75.971 350.81 78.2164C350.81 80.2999 350.219 81.6552 349.038 82.2823C347.857 82.8892 346.195 83.1926 344.052 83.1926ZM328.013 78.4894H342.881C342.68 75.6574 341.92 73.5435 340.598 72.1478C339.297 70.7317 337.574 70.0237 335.432 70.0237C333.39 70.0237 331.708 70.7419 330.386 72.1781C329.085 73.5941 328.294 75.6979 328.013 78.4894Z" fill="#0181CB"/>
<path d="M389.495 90.2322L382.377 63.5607L375.169 90.2322C374.608 92.2551 374.157 93.7115 373.817 94.6016C373.497 95.4714 372.926 96.2603 372.105 96.9683C371.284 97.6561 370.193 98 368.831 98C367.73 98 366.819 97.7876 366.098 97.3628C365.397 96.9582 364.826 96.3817 364.386 95.6332C363.945 94.8646 363.585 93.9644 363.305 92.9327C363.024 91.8808 362.774 90.9098 362.554 90.0198L355.225 60.0712C354.785 58.3316 354.564 57.0066 354.564 56.0963C354.564 54.9433 354.965 53.9723 355.766 53.1834C356.567 52.3945 357.558 52 358.739 52C360.361 52 361.452 52.5259 362.013 53.5778C362.574 54.6297 363.064 56.157 363.485 58.1596L369.252 84.1332L375.709 59.8285C376.19 57.9675 376.62 56.5515 377.001 55.5805C377.381 54.6095 378.002 53.77 378.863 53.062C379.724 52.354 380.895 52 382.377 52C383.879 52 385.04 52.3742 385.861 53.1227C386.702 53.8509 387.283 54.65 387.603 55.5198C387.923 56.3896 388.354 57.8259 388.895 59.8285L395.412 84.1332L401.179 58.1596C401.459 56.8043 401.72 55.7423 401.96 54.9736C402.22 54.2049 402.651 53.5172 403.251 52.9103C403.872 52.3034 404.763 52 405.925 52C407.086 52 408.067 52.3945 408.868 53.1834C409.689 53.9521 410.099 54.923 410.099 56.0963C410.099 56.9257 409.879 58.2507 409.439 60.0712L402.11 90.0198C401.609 92.0427 401.189 93.5295 400.849 94.4802C400.528 95.4107 399.968 96.23 399.167 96.938C398.386 97.646 397.274 98 395.833 98C394.471 98 393.38 97.6561 392.559 96.9683C391.738 96.2806 391.167 95.5119 390.847 94.6623C390.526 93.7924 390.076 92.3157 389.495 90.2322Z" fill="#0181CB"/>
<path d="M434.638 93.3272C432.656 94.8848 430.734 96.058 428.871 96.847C427.029 97.6157 424.957 98 422.654 98C420.552 98 418.699 97.5853 417.098 96.7559C415.516 95.9063 414.294 94.7634 413.433 93.3272C412.572 91.8909 412.142 90.3333 412.142 88.6544C412.142 86.3887 412.853 84.4569 414.274 82.8588C415.696 81.2608 417.648 80.1887 420.131 79.6425C420.652 79.5211 421.943 79.248 424.006 78.8232C426.068 78.3984 427.83 78.0141 429.292 77.6702C430.774 77.3061 432.375 76.8712 434.098 76.3654C433.997 74.1807 433.557 72.5827 432.776 71.5712C432.015 70.5396 430.423 70.0237 428 70.0237C425.918 70.0237 424.346 70.3171 423.285 70.9037C422.244 71.4903 421.343 72.3703 420.582 73.5435C419.841 74.7168 419.31 75.4956 418.99 75.8799C418.689 76.2441 418.029 76.4261 417.008 76.4261C416.086 76.4261 415.285 76.1328 414.605 75.5462C413.944 74.9393 413.614 74.1706 413.614 73.2401C413.614 71.7836 414.124 70.3676 415.145 68.9921C416.167 67.6165 417.758 66.4837 419.921 65.5937C422.083 64.7036 424.777 64.2586 428 64.2586C431.605 64.2586 434.438 64.6935 436.5 65.5633C438.563 66.4129 440.014 67.7682 440.855 69.6293C441.716 71.4903 442.147 73.9582 442.147 77.033C442.147 78.9749 442.137 80.6236 442.117 81.9789C442.117 83.3342 442.107 84.8412 442.087 86.5C442.087 88.0576 442.337 89.686 442.838 91.3852C443.358 93.0642 443.619 94.1464 443.619 94.6319C443.619 95.4815 443.218 96.2603 442.417 96.9683C441.636 97.6561 440.745 98 439.744 98C438.903 98 438.072 97.6055 437.251 96.8166C436.43 96.0075 435.559 94.8443 434.638 93.3272ZM434.098 81.3417C432.896 81.7867 431.144 82.2621 428.841 82.7678C426.559 83.2533 424.977 83.6174 424.096 83.8602C423.215 84.0827 422.374 84.5378 421.573 85.2256C420.772 85.8931 420.371 86.8338 420.371 88.0475C420.371 89.3017 420.842 90.3738 421.783 91.2639C422.724 92.1337 423.956 92.5686 425.477 92.5686C427.099 92.5686 428.591 92.2146 429.953 91.5066C431.334 90.7784 432.345 89.8478 432.986 88.715C433.727 87.4609 434.098 85.3975 434.098 82.5251V81.3417Z" fill="#0181CB"/>
<path d="M450.497 92.9631V57.0369C450.497 55.3782 450.857 54.124 451.578 53.2744C452.319 52.4248 453.31 52 454.551 52C455.793 52 456.794 52.4248 457.555 53.2744C458.316 54.1038 458.696 55.358 458.696 57.0369V92.9631C458.696 94.642 458.306 95.9063 457.525 96.7559C456.764 97.5853 455.773 98 454.551 98C453.35 98 452.369 97.5651 451.608 96.6952C450.867 95.8254 450.497 94.5814 450.497 92.9631Z" fill="#0181CB"/>
<path d="M487.62 94.2071L480.382 82.1913L475.937 86.4393V93.0237C475.937 94.6218 475.516 95.8558 474.675 96.7256C473.854 97.5752 472.903 98 471.822 98C470.56 98 469.569 97.5752 468.848 96.7256C468.127 95.876 467.767 94.6218 467.767 92.9631V57.6438C467.767 55.803 468.117 54.4072 468.818 53.4565C469.519 52.4855 470.52 52 471.822 52C473.083 52 474.084 52.4349 474.825 53.3047C475.566 54.1746 475.937 55.4591 475.937 57.1583V77.2454L485.157 67.4749C486.299 66.2612 487.17 65.4318 487.77 64.9868C488.371 64.5418 489.102 64.3193 489.963 64.3193C490.984 64.3193 491.835 64.653 492.516 65.3206C493.197 65.9679 493.537 66.7872 493.537 67.7784C493.537 68.9921 492.426 70.6104 490.203 72.6332L485.848 76.6689L494.258 90.0198C494.879 91.011 495.319 91.7696 495.579 92.2955C495.86 92.8012 496 93.2867 496 93.752C496 95.0668 495.64 96.1086 494.919 96.8773C494.218 97.6258 493.287 98 492.125 98C491.124 98 490.353 97.7269 489.813 97.1807C489.272 96.6346 488.541 95.6434 487.62 94.2071Z" fill="#0181CB"/>
<defs>
<linearGradient id="paint0_linear_176_4" x1="30.9659" y1="120.29" x2="77.6538" y2="120.29" gradientUnits="userSpaceOnUse">
<stop stop-color="#008EE1"/>
<stop offset="1" stop-color="#5FB7DC"/>
</linearGradient>
<linearGradient id="paint1_linear_176_4" x1="29.7102" y1="112.909" x2="147.705" y2="112.909" gradientUnits="userSpaceOnUse">
<stop stop-color="#008EE1"/>
<stop offset="1" stop-color="#5FB7DC"/>
</linearGradient>
</defs>
</svg>
